<!DOCTYPE svg PUBLIC "-//W3C//DTD SVG 1.1//EN" "http://www.w3.org/Graphics/SVG/1.1/DTD/svg11.dtd">
<!-- Uploaded to: SVG Repo, www.svgrepo.com, Transformed by: SVG Repo Mixer Tools -->
<svg fill="#74D5AF" width="64px" height="64px" viewBox="-2.4 -2.4 28.80 28.80" xmlns="http://www.w3.org/2000/svg" stroke="#74D5AF" stroke-width="0.00024000000000000003" transform="rotate(0)">
<g id="SVGRepo_bgCarrier" stroke-width="0"/>
<g id="SVGRepo_tracerCarrier" stroke-linecap="round" stroke-linejoin="round"/>
<g id="SVGRepo_iconCarrier"> <g id="Desktop"> <path d="M18.435,3.065H5.565a2.5,2.5,0,0,0-2.5,2.5v8.87a2.5,2.5,0,0,0,2.5,2.5h2.91l-.37,3H7a.5.5,0,0,0,0,1h10.01a.5.5,0,0,0,0-1H15.9l-.37-3h2.91a2.5,2.5,0,0,0,2.5-2.5V5.565A2.5,2.5,0,0,0,18.435,3.065Zm-9.33,16.87.38-3h5.03l.37,3Zm10.83-5.5a1.5,1.5,0,0,1-1.5,1.5H5.565a1.5,1.5,0,0,1-1.5-1.5v-.5h15.87Zm0-1.5H4.065V5.565a1.5,1.5,0,0,1,1.5-1.5h12.87a1.5,1.5,0,0,1,1.5,1.5Z"/> </g> </g>
</svg>